[Header]
FileType HTR
DataType HTRS
FileVersion 1
NumSegments 22
NumFrames 4
DataFrameRate 24
EulerRotationOrder ZYX
CalibrationUnits mm
RotationUnits Degrees
GlobalAxisofGravity Y
BoneLengthAxis Y
ScaleFactor 1.0
[SegmentNames&Hierarchy]
reference	GLOBAL
Hips	reference
Spine	Hips
Spine1	Spine
Neck	Spine1
Head	Neck
LeftShoulder	Spine1
LeftArm	LeftShoulder
LeftForeArm	LeftArm
LeftHand	LeftForeArm
RightShoulder	Spine1
RightArm	RightShoulder
RightForeArm	RightArm
RightHand	RightForeArm
LeftUpLeg	Hips
LeftLeg	LeftUpLeg
LeftFoot	LeftLeg
LeftToeBase	LeftFoot
RightUpLeg	Hips
RightLeg	RightUpLeg
RightFoot	RightLeg
RightToeBase	RightFoot
[BasePosition]
reference	0	0	0	0	0	0	1
Hips	0	0	0	0	0	0	1
Spine	0	0	0	0	-0	90	1
Spine1	0	0	0	0	0	0	1
Neck	0	0	0	-7.352327771	-7.352327771	90	1
Head	0	0	0	0	-0	90	1
LeftShoulder	0	0	0	0	0	0	1
LeftArm	0	0	0	0	0	0	1
LeftForeArm	0	0	0	0	0	0	1
LeftHand	0	0	0	0	0	0	1
RightShoulder	0	0	0	0	-0	180	1
RightArm	0	0	0	0	-0	180	1
RightForeArm	0	0	0	0	-0	180	1
RightHand	0	0	0	0	-0	180	1
LeftUpLeg	0	0	0	0	-0	-90	1
LeftLeg	0	0	0	0	-0	-90	1
LeftFoot	0	0	0	66.57146043	-66.57146043	-90	1
LeftToeBase	0	0	0	0	-90	0	1
RightUpLeg	0	0	0	0	-0	-90	1
RightLeg	0	0	0	0	-0	-90	1
RightFoot	0	0	0	66.57146043	-66.57146043	-90	1
RightToeBase	0	0	0	0	-90	0	1
[reference]
21	0	0	0	0	-0	0	1.0
22	0	0	0	0	-0	0	1.0
23	0	0	0	0	-0	0	1.0
24	0	0	0	0	-0	0	1.0
[Hips]
21	2.624432087	8.577266693	-4.374374866	-30.91028214	-94.87190247	35.70251083	1.0
22	2.581317902	8.543328285	-4.258780003	-38.19464874	-95.02913666	43.20133209	1.0
23	2.525488853	8.508871078	-4.119526863	-49.69289017	-95.23883057	54.98287201	1.0
24	2.461339474	8.482886314	-3.945676088	-62.10699081	-95.75869751	67.56587219	1.0
[Spine]
21	0	0.7457100153	0	-7.368376732	2.101727247	-86.26793671	1.0
22	0	0.7457100153	0	-7.687295914	2.119805813	-86.0577774	1.0
23	0	0.7457100153	0	-7.854295731	1.788521171	-85.74889374	1.0
24	0	0.7457100153	0	-7.761007309	1.427589059	-85.24029541	1.0
[Spine1]
21	0	2.140589952	0	7.669521809	0.6271811128	-0.09608437121	1.0
22	0	2.140589952	0	7.699496269	0.6112737656	-0.05578711629	1.0
23	0	2.140589952	0	7.724153042	0.4844547212	0.2973194718	1.0
24	0	2.140589952	0	7.592965603	0.3143992722	0.8189885616	1.0
[Neck]
21	0	2.32246995	0	-15.03341484	6.729446411	-93.82844543	1.0
22	0	2.32246995	0	-15.43442917	7.050940037	-93.27856445	1.0
23	0	2.32246995	0	-15.43040085	6.900628567	-92.65163422	1.0
24	0	2.32246995	0	-15.99262047	6.751767635	-92.04496002	1.0
[Head]
21	0	1.409579992	0.1818799973	-4.873301983	-0.2573443651	-91.44879913	1.0
22	0	1.409579992	0.1818799973	-3.989242554	0.08884295076	-91.73897552	1.0
23	0	1.409579992	0.1818799973	-4.669096947	-0.1197376847	-91.79025269	1.0
24	0	1.409579992	0.1818799973	-4.508152962	-0.2690339386	-92.2017746	1.0
[LeftShoulder]
21	0.3668199778	1.946700096	-0.02662999928	-15.46539307	-11.37658501	-2.224685192	1.0
22	0.3668199778	1.946700096	-0.02662999928	-16.88622856	-11.39205742	-1.515105128	1.0
23	0.3668199778	1.946700096	-0.02662999928	-16.64886284	-11.5247612	-1.735889316	1.0
24	0.3668199778	1.946700096	-0.02662999928	-16.36873055	-11.68997192	-2.088558435	1.0
[LeftArm]
21	1.140689969	0	0	39.27470398	11.30365562	-63.43833923	1.0
22	1.140689969	0	0	40.47288132	10.72493172	-63.79560089	1.0
23	1.140689969	0	0	41.58995819	9.322378159	-63.8315773	1.0
24	1.140689969	0	0	42.16448212	8.082136154	-64.09872437	1.0
[LeftForeArm]
21	2.749800205	0	0	-141.2992554	-44.69059753	159.8887177	1.0
22	2.749800205	0	0	-143.0515137	-44.50689697	160.8498993	1.0
23	2.749800205	0	0	-142.2975159	-44.54806137	160.4123993	1.0
24	2.749800205	0	0	-143.4283752	-44.54385757	160.824295	1.0
[LeftHand]
21	2.295179844	0	0	-9.01763916	-23.0851078	5.109191895	1.0
22	2.295179844	0	0	-8.832456589	-23.46228409	4.665647984	1.0
23	2.295179844	0	0	-8.988974571	-23.68843269	4.694098473	1.0
24	2.295179844	0	0	-9.228240013	-23.89758492	4.583890438	1.0
[RightShoulder]
21	-0.3601199985	1.946700096	-0.02662999928	-5.574466228	3.517988682	176.1962433	1.0
22	-0.3601199985	1.946700096	-0.02662999928	-6.169024467	3.750677586	176.0803223	1.0
23	-0.3601199985	1.946700096	-0.02662999928	-6.261149406	3.787406921	176.2585754	1.0
24	-0.3601199985	1.946700096	-0.02662999928	-6.081807137	3.582633257	176.5498352	1.0
[RightArm]
21	-1.140689969	0	0	48.26300812	-2.251100302	-111.1240616	1.0
22	-1.140689969	0	0	51.26902008	-0.9846529961	-110.5032043	1.0
23	-1.140689969	0	0	51.94981384	0.05229054391	-109.9311371	1.0
24	-1.140689969	0	0	52.60018921	0.5779261589	-109.1096268	1.0
[RightForeArm]
21	-2.749800205	0	0	-102.2551117	45.08204651	38.60266113	1.0
22	-2.749800205	0	0	-99.42449951	41.87854004	38.22865295	1.0
23	-2.749800205	0	0	-99.88070679	40.89488602	36.94236755	1.0
24	-2.749800205	0	0	-99.96789551	40.01281738	36.06137848	1.0
[RightHand]
21	-2.295179844	0	0	-5.537680149	17.94373131	161.3340149	1.0
22	-2.295179844	0	0	-6.965043545	18.02358055	159.9098816	1.0
23	-2.295179844	0	0	-6.871244431	18.24643135	159.7342224	1.0
24	-2.295179844	0	0	-6.944824219	18.33782578	159.2622223	1.0
[LeftUpLeg]
21	0.9094099998	0	0	-15.80744934	5.761208534	103.1930542	1.0
22	0.9094099998	0	0	-15.70307922	4.833718777	104.2977905	1.0
23	0.9094099998	0	0	-16.24137497	4.214678764	105.1826782	1.0
24	0.9094099998	0	0	-17.3455658	3.870516539	105.6153717	1.0
[LeftLeg]
21	0	-4.498080254	0	38.33000565	-1.858138204	73.44526672	1.0
22	0	-4.498080254	0	36.07424545	0.3311531544	74.64906311	1.0
23	0	-4.498080254	0	35.53431702	-0.8182303905	73.69248199	1.0
24	0	-4.498080254	0	38.5466156	-1.981147766	71.59277344	1.0
[LeftFoot]
21	0	-3.729400158	0	-34.85383606	104.7793121	19.78300476	1.0
22	0	-3.729400158	0	-42.57127762	107.1346207	13.85542965	1.0
23	0	-3.729400158	0	-49.44071198	109.3931961	6.835378647	1.0
24	0	-3.729400158	0	-53.17363739	110.7238312	4.06664896	1.0
[LeftToeBase]
21	0	-0.5911099911	1.364109993	0	0	0	1.0
22	0	-0.5911099911	1.364109993	0	0	0	1.0
23	0	-0.5911099911	1.364109993	0	0	0	1.0
24	0	-0.5911099911	1.364109993	0	0	0	1.0
[RightUpLeg]
21	-0.9094099998	0	0	-0.3308207691	-9.791391373	89.59596252	1.0
22	-0.9094099998	0	0	0.3348274231	-10.09417057	89.29846191	1.0
23	-0.9094099998	0	0	0.8048430085	-10.50676346	89.21055603	1.0
24	-0.9094099998	0	0	1.177412987	-10.87585735	89.0375061	1.0
[RightLeg]
21	0	-4.498080254	0	4.33862114	-2.85842967	91.11885834	1.0
22	0	-4.498080254	0	3.342013359	-3.499410391	91.23960114	1.0
23	0	-4.498080254	0	2.621612072	-4.11756134	91.10244751	1.0
24	0	-4.498080254	0	2.669071674	-4.434614658	90.97442627	1.0
[RightFoot]
21	0	-3.729400158	0	58.59217453	60.82359695	101.8589706	1.0
22	0	-3.729400158	0	60.25993729	60.10975647	103.3257599	1.0
23	0	-3.729400158	0	61.68509674	59.21144104	104.7880402	1.0
24	0	-3.729400158	0	62.25445557	57.84504318	105.812851	1.0
[RightToeBase]
21	0	-0.5911099911	1.364109993	0	0	0	1.0
22	0	-0.5911099911	1.364109993	0	0	0	1.0
23	0	-0.5911099911	1.364109993	0	0	0	1.0
24	0	-0.5911099911	1.364109993	0	0	0	1.0
[EndOfFile]
